<svg width="10" height="10" viewBox="0 0 10 10" fill="none" xmlns="http://www.w3.org/2000/svg">
<path d="M7.9139 0.331561C6.94577 1.30038 5.97593 2.26936 5.00882 3.23834C4.04 2.26987 3.07119 1.30088 2.10204 0.331561C0.981021 -0.788947 -0.755928 0.948849 0.36458 2.06936C1.33305 3.03732 2.30238 4.00682 3.26966 4.97444C2.3017 5.94292 1.33255 6.91224 0.36458 7.88122C-0.755928 9.00139 0.981868 10.7387 2.10204 9.61885C3.07051 8.64987 4.03933 7.68105 5.00882 6.71207C5.97763 7.68105 6.94577 8.64953 7.9139 9.61885C9.03458 10.7388 10.7717 9.00139 9.65204 7.88139C8.68305 6.91241 7.71424 5.94393 6.74526 4.97461C7.71441 4.0058 8.68322 3.03682 9.65204 2.06783C10.7717 0.947663 9.03458 -0.790134 7.9139 0.330375" fill="white"/>
</svg>
