<svg width="20" height="20" viewBox="0 0 20 20" fill="none" xmlns="http://www.w3.org/2000/svg">
<path fill-rule="evenodd" clip-rule="evenodd" d="M3.707 2.29298C3.5184 2.11082 3.2658 2.01003 3.0036 2.01231C2.7414 2.01458 2.49059 2.11975 2.30518 2.30516C2.11978 2.49057 2.01461 2.74138 2.01233 3.00358C2.01005 3.26578 2.11084 3.51838 2.293 3.70698L16.293 17.707C16.4816 17.8891 16.7342 17.9899 16.9964 17.9877C17.2586 17.9854 17.5094 17.8802 17.6948 17.6948C17.8802 17.5094 17.9854 17.2586 17.9877 16.9964C17.99 16.7342 17.8892 16.4816 17.707 16.293L16.234 14.82C17.7915 13.5781 18.9433 11.8999 19.542 9.99998C18.268 5.94298 14.478 2.99998 10 2.99998C8.43243 2.99785 6.8865 3.36583 5.488 4.07398L3.708 2.29298H3.707ZM7.968 6.55298L9.482 8.06798C9.82109 7.97793 10.1779 7.97853 10.5167 8.06971C10.8555 8.16089 11.1644 8.33946 11.4124 8.58755C11.6605 8.83563 11.8391 9.14452 11.9303 9.48331C12.0215 9.8221 12.0221 10.1789 11.932 10.518L13.446 12.032C13.897 11.268 14.0812 10.3758 13.9697 9.49566C13.8581 8.61554 13.4571 7.79747 12.8298 7.17016C12.2025 6.54284 11.3844 6.14187 10.5043 6.03033C9.62421 5.91878 8.73198 6.10299 7.968 6.55398V6.55298Z" fill="#757575"/>
<path d="M12.454 16.697L9.75 13.992C8.77769 13.9311 7.86103 13.5174 7.17206 12.8286C6.48309 12.1398 6.06917 11.2233 6.008 10.251L2.335 6.578C1.49021 7.58402 0.852349 8.74692 0.458 10C1.732 14.057 5.523 17 10 17C10.847 17 11.669 16.895 12.454 16.697Z" fill="#757575"/>
</svg>
