<svg width="24" height="24" viewBox="0 0 24 24" fill="none" xmlns="http://www.w3.org/2000/svg">
<path d="M20.4001 18.666V12.6C20.4 12.4855 20.3711 12.3728 20.3161 12.2724C20.2679 12.1925 20.1957 12.1299 20.1097 12.0936C20.0196 12.0557 19.9247 12.0306 19.8277 12.0192C19.7254 12.0064 19.6224 12 19.5193 12H19.2001V6.14037C19.2373 6.05877 19.2913 5.96277 19.3597 5.84997C19.4281 5.73717 19.4941 5.61237 19.5565 5.47557C19.6189 5.33757 19.6753 5.20917 19.7245 5.09157C19.7681 5.0001 19.7938 4.90111 19.8001 4.79997C19.7824 4.66994 19.7543 4.54153 19.7161 4.41597C19.6602 4.21664 19.5973 4.01932 19.5277 3.82437C19.4569 3.62395 19.3849 3.42395 19.3117 3.22437C19.2608 3.08872 19.2144 2.95145 19.1725 2.81277C19.1267 2.69369 19.0486 2.58978 18.9469 2.51277C18.847 2.43772 18.725 2.39804 18.6001 2.39997H16.2001C16.0719 2.40527 15.9481 2.4478 15.8437 2.52237C15.7411 2.59214 15.665 2.69445 15.6277 2.81277C15.58 2.95398 15.53 3.0944 15.4777 3.23397C15.4055 3.43264 15.337 3.63267 15.2725 3.83397C15.2029 4.04637 15.1405 4.24317 15.0841 4.42557C15.0277 4.60557 15.0001 4.73157 15.0001 4.79997C15.0001 4.88757 15.0241 4.98717 15.0757 5.09997C15.1249 5.21277 15.1837 5.33757 15.2533 5.47557C15.3649 5.69924 15.4805 5.92088 15.6001 6.14037V12H15.2809C15.1746 11.9994 15.0684 12.0058 14.9629 12.0192C14.8648 12.0308 14.7694 12.0593 14.6809 12.1032C14.5981 12.1433 14.5273 12.2046 14.4757 12.2808C14.4199 12.3775 14.3936 12.4885 14.4001 12.6V18.666C14.4001 19.0716 14.4817 19.4532 14.6437 19.8096C14.8069 20.166 15.0253 20.478 15.3001 20.7468C15.8609 21.2958 16.6152 21.6023 17.4001 21.6C17.7997 21.6 18.1813 21.522 18.5437 21.366C18.8975 21.2152 19.2215 21.0023 19.5001 20.7372C19.7771 20.4736 20.0001 20.1585 20.1565 19.8096C20.3195 19.4505 20.4026 19.0603 20.4001 18.666V18.666ZM18.0001 12H16.8001V5.99997C16.7999 5.90523 16.7773 5.81189 16.7341 5.72757L16.2469 4.75317L16.6309 3.59997H18.1693L18.5533 4.75197L18.0661 5.72757C18.0229 5.81189 18.0003 5.90523 18.0001 5.99997V12ZM15.6001 14.4V13.2H19.2001V14.4H15.6001ZM19.2001 15.6V18.6C19.2058 18.8388 19.1578 19.0758 19.0597 19.2936C18.9657 19.5103 18.8322 19.7076 18.6661 19.8756C18.3295 20.2101 17.8746 20.3985 17.4001 20.4C17.1613 20.406 16.9242 20.358 16.7065 20.2596C16.3794 20.1223 16.1 19.8917 15.9032 19.5965C15.7064 19.3013 15.601 18.9547 15.6001 18.6V15.6H19.2001ZM7.20009 3.05037C7.20023 2.952 7.17617 2.8551 7.13005 2.76821C7.08392 2.68132 7.01714 2.6071 6.93558 2.5521C6.85402 2.49709 6.76019 2.46299 6.66234 2.45278C6.5645 2.44257 6.46565 2.45658 6.37449 2.49357C5.40946 2.8839 4.57779 3.54478 3.97955 4.39669C3.38131 5.2486 3.04199 6.25524 3.00244 7.29546C2.96288 8.33569 3.22477 9.36519 3.75659 10.2601C4.2884 11.155 5.06749 11.8771 6.00009 12.3396V19.2C6.00009 19.8365 6.25295 20.4469 6.70304 20.897C7.15312 21.3471 7.76357 21.6 8.40009 21.6C9.03661 21.6 9.64706 21.3471 10.0971 20.897C10.5472 20.4469 10.8001 19.8365 10.8001 19.2V12.3408C11.7331 11.8786 12.5127 11.1566 13.0448 10.2617C13.577 9.36675 13.839 8.33705 13.7995 7.2966C13.7599 6.25615 13.4204 5.24932 12.8218 4.39738C12.2232 3.54543 11.3911 2.8847 10.4257 2.49477C10.3345 2.45778 10.2357 2.44377 10.1378 2.45398C10.04 2.46419 9.94617 2.49829 9.86461 2.5533C9.78305 2.6083 9.71626 2.68252 9.67014 2.76941C9.62401 2.8563 9.59996 2.9532 9.60009 3.05157V7.19997C9.60009 7.51823 9.47366 7.82345 9.24862 8.0485C9.02358 8.27354 8.71835 8.39997 8.40009 8.39997C8.08183 8.39997 7.77661 8.27354 7.55156 8.0485C7.32652 7.82345 7.20009 7.51823 7.20009 7.19997V3.05037ZM4.20009 7.50237C4.20009 6.07437 4.91169 4.81437 6.00009 4.05357V7.19757C6.00009 7.83409 6.25295 8.44454 6.70304 8.89463C7.15312 9.34471 7.76357 9.59757 8.40009 9.59757C9.03661 9.59757 9.64706 9.34471 10.0971 8.89463C10.5472 8.44454 10.8001 7.83409 10.8001 7.19757V4.05357C11.4214 4.48609 11.9142 5.07843 12.2266 5.76797C12.5389 6.45752 12.6592 7.21865 12.5746 7.9709C12.49 8.72315 12.2037 9.43858 11.7461 10.0415C11.2884 10.6445 10.6763 11.1126 9.97449 11.3964C9.86391 11.4412 9.76921 11.5181 9.70252 11.617C9.63583 11.716 9.60017 11.8326 9.60009 11.952V19.2C9.60009 19.5182 9.47366 19.8235 9.24862 20.0485C9.02358 20.2735 8.71835 20.4 8.40009 20.4C8.08183 20.4 7.77661 20.2735 7.55156 20.0485C7.32652 19.8235 7.20009 19.5182 7.20009 19.2V11.952C7.20002 11.8326 7.16436 11.716 7.09766 11.617C7.03097 11.5181 6.93628 11.4412 6.82569 11.3964C6.04965 11.0824 5.38509 10.5438 4.91728 9.84952C4.44947 9.15529 4.19972 8.33712 4.20009 7.49997V7.50237Z" fill="#757575"/>
</svg>
