<svg width="14" height="14" viewBox="0 0 14 14" fill="none" xmlns="http://www.w3.org/2000/svg">
<path d="M7 0.333252C3.32667 0.333252 0.333332 3.32659 0.333332 6.99992C0.333332 10.6733 3.32667 13.6666 7 13.6666C10.6733 13.6666 13.6667 10.6733 13.6667 6.99992C13.6667 3.32659 10.6733 0.333252 7 0.333252ZM9.24 8.53325C9.43333 8.72659 9.43333 9.04659 9.24 9.23992C9.14 9.33992 9.01333 9.38659 8.88667 9.38659C8.76 9.38659 8.63333 9.33992 8.53333 9.23992L7 7.70659L5.46667 9.23992C5.36667 9.33992 5.24 9.38659 5.11333 9.38659C4.98667 9.38659 4.86 9.33992 4.76 9.23992C4.56667 9.04659 4.56667 8.72659 4.76 8.53325L6.29333 6.99992L4.76 5.46659C4.56667 5.27325 4.56667 4.95325 4.76 4.75992C4.95333 4.56659 5.27333 4.56659 5.46667 4.75992L7 6.29325L8.53333 4.75992C8.72667 4.56659 9.04667 4.56659 9.24 4.75992C9.43333 4.95325 9.43333 5.27325 9.24 5.46659L7.70667 6.99992L9.24 8.53325Z" fill="white"/>
</svg>
