<svg width="16" height="16" viewBox="0 0 16 16" fill="none" xmlns="http://www.w3.org/2000/svg">
<path d="M8.00001 1.33325C4.32668 1.33325 1.33334 4.32659 1.33334 7.99992C1.33334 11.6733 4.32668 14.6666 8.00001 14.6666C11.6733 14.6666 14.6667 11.6733 14.6667 7.99992C14.6667 4.32659 11.6733 1.33325 8.00001 1.33325ZM7.50001 5.33325C7.50001 5.05992 7.72668 4.83325 8.00001 4.83325C8.27334 4.83325 8.50001 5.05992 8.50001 5.33325V8.66658C8.50001 8.93992 8.27334 9.16658 8.00001 9.16658C7.72668 9.16658 7.50001 8.93992 7.50001 8.66658V5.33325ZM8.61334 10.9199C8.58001 11.0066 8.53334 11.0733 8.47334 11.1399C8.40668 11.1999 8.33334 11.2466 8.25334 11.2799C8.17334 11.3133 8.08668 11.3333 8.00001 11.3333C7.91334 11.3333 7.82668 11.3133 7.74668 11.2799C7.66668 11.2466 7.59334 11.1999 7.52668 11.1399C7.46668 11.0733 7.42001 11.0066 7.38668 10.9199C7.35334 10.8399 7.33334 10.7533 7.33334 10.6666C7.33334 10.5799 7.35334 10.4933 7.38668 10.4133C7.42001 10.3333 7.46668 10.2599 7.52668 10.1933C7.59334 10.1333 7.66668 10.0866 7.74668 10.0533C7.90668 9.98658 8.09334 9.98658 8.25334 10.0533C8.33334 10.0866 8.40668 10.1333 8.47334 10.1933C8.53334 10.2599 8.58001 10.3333 8.61334 10.4133C8.64668 10.4933 8.66668 10.5799 8.66668 10.6666C8.66668 10.7533 8.64668 10.8399 8.61334 10.9199Z" fill="white"/>
</svg>
