<svg width="29" height="24" viewBox="0 0 29 24" fill="none" xmlns="http://www.w3.org/2000/svg">
<path d="M25.3826 5.25H3.67845C3.18408 5.25 2.77411 4.91 2.77411 4.5C2.77411 4.09 3.18408 3.75 3.67845 3.75H25.3826C25.877 3.75 26.287 4.09 26.287 4.5C26.287 4.91 25.877 5.25 25.3826 5.25Z" fill="#292D32"/>
<path d="M25.3826 10.25H3.67845C3.18408 10.25 2.77411 9.91 2.77411 9.5C2.77411 9.09 3.18408 8.75 3.67845 8.75H25.3826C25.877 8.75 26.287 9.09 26.287 9.5C26.287 9.91 25.877 10.25 25.3826 10.25Z" fill="#292D32"/>
<path d="M25.3826 15.25H3.67845C3.18408 15.25 2.77411 14.91 2.77411 14.5C2.77411 14.09 3.18408 13.75 3.67845 13.75H25.3826C25.877 13.75 26.287 14.09 26.287 14.5C26.287 14.91 25.877 15.25 25.3826 15.25Z" fill="#292D32"/>
<path d="M25.3826 20.25H3.67845C3.18408 20.25 2.77411 19.91 2.77411 19.5C2.77411 19.09 3.18408 18.75 3.67845 18.75H25.3826C25.877 18.75 26.287 19.09 26.287 19.5C26.287 19.91 25.877 20.25 25.3826 20.25Z" fill="#292D32"/>
</svg>
