<svg width="25" height="24" viewBox="0 0 25 24" fill="none" xmlns="http://www.w3.org/2000/svg">
<path d="M15.7956 22.27H15.6656C11.2256 22.27 9.08556 20.52 8.71556 16.6C8.67556 16.19 8.97556 15.82 9.39556 15.78C9.79556 15.74 10.1756 16.05 10.2156 16.46C10.5056 19.6 11.9856 20.77 15.6756 20.77H15.8056C19.8756 20.77 21.3156 19.33 21.3156 15.26V8.73998C21.3156 4.66998 19.8756 3.22998 15.8056 3.22998H15.6756C11.9656 3.22998 10.4856 4.41998 10.2156 7.61998C10.1656 8.02998 9.81556 8.33998 9.39556 8.29998C8.97556 8.26998 8.67556 7.89998 8.70556 7.48998C9.04556 3.50998 11.1956 1.72998 15.6656 1.72998H15.7956C20.7056 1.72998 22.8056 3.82998 22.8056 8.73998V15.26C22.8056 20.17 20.7056 22.27 15.7956 22.27Z" fill="#757575"/>
<path d="M15.5555 12.75H4.17554C3.76554 12.75 3.42554 12.41 3.42554 12C3.42554 11.59 3.76554 11.25 4.17554 11.25H15.5555C15.9655 11.25 16.3055 11.59 16.3055 12C16.3055 12.41 15.9655 12.75 15.5555 12.75Z" fill="#757575"/>
<path d="M6.40555 16.0998C6.21555 16.0998 6.02555 16.0298 5.87555 15.8798L2.52554 12.5298C2.23554 12.2398 2.23554 11.7598 2.52554 11.4698L5.87555 8.11984C6.16555 7.82984 6.64555 7.82984 6.93555 8.11984C7.22555 8.40984 7.22555 8.88984 6.93555 9.17984L4.11554 11.9998L6.93555 14.8198C7.22555 15.1098 7.22555 15.5898 6.93555 15.8798C6.79555 16.0298 6.59555 16.0998 6.40555 16.0998Z" fill="#757575"/>
</svg>
