<svg width="20" height="20" viewBox="0 0 20 20" fill="none" xmlns="http://www.w3.org/2000/svg">
<path d="M10.3833 18.9584C10.2416 18.9584 10.0999 18.9584 9.95826 18.9501C5.2916 18.7418 1.3916 14.9834 1.0666 10.4001C0.783265 6.46676 3.05826 2.79176 6.72493 1.2501C7.7666 0.816762 8.3166 1.1501 8.54993 1.39176C8.78326 1.6251 9.10826 2.16676 8.67493 3.15843C8.2916 4.04176 8.09993 4.98343 8.10826 5.9501C8.12493 9.64176 11.1916 12.7751 14.9333 12.9251C15.4749 12.9501 16.0083 12.9084 16.5249 12.8168C17.6249 12.6168 18.0833 13.0584 18.2583 13.3418C18.4333 13.6251 18.6333 14.2334 17.9666 15.1334C16.1999 17.5501 13.3916 18.9584 10.3833 18.9584ZM2.30826 10.3084C2.5916 14.2751 5.97493 17.5251 10.0083 17.7001C12.7499 17.8334 15.3499 16.5834 16.9499 14.4001C17.0749 14.2251 17.1333 14.1001 17.1583 14.0334C17.0833 14.0251 16.9499 14.0168 16.7416 14.0584C16.1333 14.1668 15.4999 14.2084 14.8749 14.1834C10.4749 14.0084 6.87493 10.3168 6.84993 5.96676C6.84993 4.81676 7.07493 3.70843 7.53326 2.66676C7.6166 2.48343 7.63326 2.35843 7.6416 2.29176C7.5666 2.29176 7.43326 2.30843 7.2166 2.4001C4.0416 3.73343 2.07493 6.91676 2.30826 10.3084Z" fill="#2563EB"/>
</svg>
