<svg width="25" height="24" viewBox="0 0 25 24" fill="none" xmlns="http://www.w3.org/2000/svg">
<path d="M12.1438 20.5299C9.8138 20.5299 7.4838 20.1599 5.2738 19.4199C4.4338 19.1299 3.7938 18.5399 3.5138 17.7699C3.2238 16.9999 3.3238 16.1499 3.7838 15.3899L4.9338 13.4799C5.1738 13.0799 5.3938 12.2799 5.3938 11.8099V8.91992C5.3938 5.19992 8.4238 2.16992 12.1438 2.16992C15.8638 2.16992 18.8938 5.19992 18.8938 8.91992V11.8099C18.8938 12.2699 19.1138 13.0799 19.3538 13.4899L20.4938 15.3899C20.9238 16.1099 21.0038 16.9799 20.7138 17.7699C20.4238 18.5599 19.7938 19.1599 19.0038 19.4199C16.8038 20.1599 14.4738 20.5299 12.1438 20.5299ZM12.1438 3.66992C9.2538 3.66992 6.8938 6.01992 6.8938 8.91992V11.8099C6.8938 12.5399 6.5938 13.6199 6.2238 14.2499L5.0738 16.1599C4.8538 16.5299 4.7938 16.9199 4.9238 17.2499C5.0438 17.5899 5.3438 17.8499 5.7538 17.9899C9.9338 19.3899 14.3638 19.3899 18.5438 17.9899C18.9038 17.8699 19.1838 17.5999 19.3138 17.2399C19.4438 16.8799 19.4138 16.4899 19.2138 16.1599L18.0638 14.2499C17.6838 13.5999 17.3938 12.5299 17.3938 11.7999V8.91992C17.3938 6.01992 15.0438 3.66992 12.1438 3.66992Z" fill="#757575"/>
<path d="M14.0038 3.94018C13.9338 3.94018 13.8638 3.93018 13.7938 3.91018C13.5038 3.83018 13.2238 3.77018 12.9538 3.73018C12.1038 3.62018 11.2838 3.68018 10.5138 3.91018C10.2338 4.00018 9.9338 3.91018 9.7438 3.70018C9.5538 3.49018 9.4938 3.19018 9.6038 2.92018C10.0138 1.87018 11.0138 1.18018 12.1538 1.18018C13.2938 1.18018 14.2938 1.86018 14.7038 2.92018C14.8038 3.19018 14.7538 3.49018 14.5638 3.70018C14.4138 3.86018 14.2038 3.94018 14.0038 3.94018Z" fill="#757575"/>
<path d="M12.1438 22.8101C11.1538 22.8101 10.1938 22.4101 9.49381 21.7101C8.79381 21.0101 8.39381 20.0501 8.39381 19.0601H9.89381C9.89381 19.6501 10.1338 20.2301 10.5538 20.6501C10.9738 21.0701 11.5538 21.3101 12.1438 21.3101C13.3838 21.3101 14.3938 20.3001 14.3938 19.0601H15.8938C15.8938 21.1301 14.2138 22.8101 12.1438 22.8101Z" fill="#757575"/>
</svg>
