<svg width="20" height="20" viewBox="0 0 20 20" fill="none" xmlns="http://www.w3.org/2000/svg">
<path d="M10 16.0416C6.66671 16.0416 3.95837 13.3333 3.95837 9.99992C3.95837 6.66659 6.66671 3.95825 10 3.95825C13.3334 3.95825 16.0417 6.66659 16.0417 9.99992C16.0417 13.3333 13.3334 16.0416 10 16.0416ZM10 5.20825C7.35837 5.20825 5.20837 7.35825 5.20837 9.99992C5.20837 12.6416 7.35837 14.7916 10 14.7916C12.6417 14.7916 14.7917 12.6416 14.7917 9.99992C14.7917 7.35825 12.6417 5.20825 10 5.20825Z" fill="#EC860E"/>
<path d="M10 19.1333C9.54171 19.1333 9.16671 18.7916 9.16671 18.3333V18.2666C9.16671 17.8083 9.54171 17.4333 10 17.4333C10.4584 17.4333 10.8334 17.8083 10.8334 18.2666C10.8334 18.7249 10.4584 19.1333 10 19.1333ZM15.95 16.7833C15.7334 16.7833 15.525 16.6999 15.3584 16.5416L15.25 16.4333C14.925 16.1083 14.925 15.5833 15.25 15.2583C15.575 14.9333 16.1 14.9333 16.425 15.2583L16.5334 15.3666C16.8584 15.6916 16.8584 16.2166 16.5334 16.5416C16.375 16.6999 16.1667 16.7833 15.95 16.7833ZM4.05004 16.7833C3.83337 16.7833 3.62504 16.6999 3.45837 16.5416C3.13337 16.2166 3.13337 15.6916 3.45837 15.3666L3.56671 15.2583C3.89171 14.9333 4.41671 14.9333 4.74171 15.2583C5.06671 15.5833 5.06671 16.1083 4.74171 16.4333L4.63337 16.5416C4.47504 16.6999 4.25837 16.7833 4.05004 16.7833ZM18.3334 10.8333H18.2667C17.8084 10.8333 17.4334 10.4583 17.4334 9.99992C17.4334 9.54158 17.8084 9.16658 18.2667 9.16658C18.725 9.16658 19.1334 9.54158 19.1334 9.99992C19.1334 10.4583 18.7917 10.8333 18.3334 10.8333ZM1.73337 10.8333H1.66671C1.20837 10.8333 0.833374 10.4583 0.833374 9.99992C0.833374 9.54158 1.20837 9.16658 1.66671 9.16658C2.12504 9.16658 2.53337 9.54158 2.53337 9.99992C2.53337 10.4583 2.19171 10.8333 1.73337 10.8333ZM15.8417 4.99158C15.625 4.99158 15.4167 4.90825 15.25 4.74992C14.925 4.42492 14.925 3.89992 15.25 3.57492L15.3584 3.46659C15.6834 3.14159 16.2084 3.14159 16.5334 3.46659C16.8584 3.79158 16.8584 4.31659 16.5334 4.64159L16.425 4.74992C16.2667 4.90825 16.0584 4.99158 15.8417 4.99158ZM4.15837 4.99158C3.94171 4.99158 3.73337 4.90825 3.56671 4.74992L3.45837 4.63325C3.13337 4.30825 3.13337 3.78325 3.45837 3.45825C3.78337 3.13325 4.30837 3.13325 4.63337 3.45825L4.74171 3.56659C5.06671 3.89159 5.06671 4.41659 4.74171 4.74159C4.58337 4.90825 4.36671 4.99158 4.15837 4.99158ZM10 2.53325C9.54171 2.53325 9.16671 2.19159 9.16671 1.73325V1.66659C9.16671 1.20825 9.54171 0.833252 10 0.833252C10.4584 0.833252 10.8334 1.20825 10.8334 1.66659C10.8334 2.12492 10.4584 2.53325 10 2.53325Z" fill="#EC860E"/>
</svg>
